<?xml version="1.0" encoding="utf-8"?>
<!-- Svg Vector Icons : http://www.onlinewebfonts.com/icon -->
<!DOCTYPE svg PUBLIC "-//W3C//DTD SVG 1.1//EN" "http://www.w3.org/Graphics/SVG/1.1/DTD/svg11.dtd">
<svg version="1.1" xmlns="http://www.w3.org/2000/svg" xmlns:xlink="http://www.w3.org/1999/xlink" x="0px" y="0px" viewBox="0 0 1000 1000" enable-background="new 0 0 1000 1000" xml:space="preserve">
<metadata> Svg Vector Icons : http://www.onlinewebfonts.com/icon </metadata>
<g><path d="M920,62.5H80c-38.7,0-70,31.3-70,70v560c0,38.7,31.3,70,70,70h350v105H255c-19.3,0-35,15.7-35,35v35h560v-35c0-19.3-15.7-35-35-35H570v-105h350c38.7,0,70-31.3,70-70v-560C990,93.8,958.7,62.5,920,62.5L920,62.5L920,62.5z M465,692.5c0-19.3,15.7-35,35-35c19.3,0,35,15.7,35,35c0,19.3-15.7,35-35,35C480.7,727.5,465,711.8,465,692.5L465,692.5L465,692.5z M80,622.5v-490h840v490H80L80,622.5z"/></g>
</svg>